<?xml version="1.0" encoding="utf-8"?>
<!-- Generator: Adobe Illustrator 26.1.0, SVG Export Plug-In . SVG Version: 6.00 Build 0)  -->
<svg version="1.1" id="Layer_1" xmlns="http://www.w3.org/2000/svg" xmlns:xlink="http://www.w3.org/1999/xlink" x="0px" y="0px"
	 viewBox="0 0 512 130" style="enable-background:new 0 0 512 130;" xml:space="preserve">
<style type="text/css">
	.st0{fill:#FCD006;}
	.st1{fill:#093254;}
</style>
<g>
	<g>
		<rect x="2.2" y="80.3" class="st0" width="503.3" height="5.2"/>
		<g>
			<path class="st1" d="M175.7,27.1l15,40c0.6,1.7,1.5,3,2.5,3.8c1,0.9,2.5,1.5,4.2,1.8c0.7,0.2,1,0.6,1,1.2c0,0.3-0.1,0.6-0.3,0.8
				c-0.2,0.2-0.5,0.3-0.8,0.3h-18.7c-0.7,0-1-0.4-1-1.1c0-0.7,0.3-1.1,1-1.2c2.4-0.1,3.6-1,3.6-2.8c0-0.7-0.1-1.5-0.4-2.4l-3.3-8.8
				c-0.1-0.4-0.4-0.7-0.7-0.7h-13.9c-3.2,0-5.3,1-6.1,2.9l-3,6.8c-0.3,0.8-0.5,1.5-0.5,2.1c0,1.9,1.7,2.8,5,2.8c0.7,0,1,0.4,1,1.1
				c0,0.8-0.3,1.2-1,1.2h-15.1c-0.7,0-1.1-0.4-1.1-1.1c0-0.6,0.3-1,1-1.2c1.7-0.2,3-0.7,3.9-1.6c0.8-0.8,1.7-2.2,2.5-3.9l17.2-39
				c0.3-0.8,1-1.5,2-2c1-0.5,2-0.8,3.1-0.8C174.3,25.5,175.3,26,175.7,27.1z M160.8,54c-0.1,0.2-0.1,0.3-0.1,0.4
				c0,0.1,0.1,0.2,0.4,0.2h14.2c0.9,0,1.4-0.3,1.4-0.9c0-0.3-0.1-0.7-0.2-1l-4.1-11.3c-1.5-4.2-2.4-6.9-2.6-8.1c0-0.1,0-0.2-0.1-0.2
				c-0.1,0-0.1,0.1-0.1,0.2c-0.4,1.5-1.1,3.4-2.1,5.6L160.8,54z"/>
			<path class="st1" d="M224,73.9l-15-40c-0.7-1.9-1.5-3.2-2.6-4.1c-1-0.8-2.4-1.4-4.2-1.6c-0.6-0.1-1-0.5-1-1.1
				c0-0.7,0.3-1.1,1-1.1H221c0.7,0,1.1,0.4,1.1,1.1s-0.3,1.1-1,1.1c-2.4,0-3.6,0.9-3.6,2.8c0,0.8,0.1,1.7,0.4,2.5l9.5,26.1
				c1.5,4.1,2.3,6.8,2.5,8.1c0,0.2,0,0.3,0.1,0.3c0.1,0,0.2-0.1,0.2-0.3c0.3-1.3,1-3.2,2.1-5.6l12.5-28.9c0.3-0.9,0.5-1.7,0.5-2.2
				c0-1.7-1.7-2.7-5.1-2.8c-0.7-0.1-1-0.5-1-1.1c0-0.7,0.4-1.1,1.1-1.1h15.1c0.7,0,1.1,0.4,1.1,1.1c0,0.7-0.3,1.1-1,1.1
				c-1.7,0.2-3,0.7-3.9,1.5c-0.8,0.8-1.7,2.2-2.5,4.1L232,73c-0.7,1.6-2.3,2.5-4.5,2.5C225.6,75.4,224.4,74.9,224,73.9z"/>
			<path class="st1" d="M277.1,65.5c0,2.2,0.3,3.9,0.9,5.1c0.6,1.2,1.9,1.9,4,2.2c0.6,0.1,1,0.5,1,1.1c0,0.7-0.4,1.1-1.1,1.1h-17.7
				c-0.7,0-1.1-0.3-1.1-1c0-0.6,0.3-1,1-1.2c1.1-0.2,2.1-0.5,2.8-1c0.7-0.4,1.2-1.1,1.5-1.9c0.3-0.8,0.5-1.5,0.6-2.2
				s0.2-1.6,0.2-2.9l1-29.4c0-2.2-0.3-3.9-1-5.1c-0.6-1.2-2-2-4-2.3c-0.6-0.1-1-0.5-1-1.1c0-0.7,0.3-1.1,1-1.1h17.9
				c0.7,0,1,0.4,1,1.1c0,0.6-0.3,1-1,1.1c-2.1,0.4-3.4,1.2-4.1,2.4c-0.6,1.2-1,3-1,5.2L277.1,65.5z"/>
			<path class="st1" d="M340.5,31.7c3.7,4.4,5.5,9.8,5.5,16.1c0,3.4-0.6,6.8-1.7,10c-1.1,3.2-2.8,6.2-4.9,8.9
				c-2.1,2.7-4.8,4.8-8.2,6.4c-3.3,1.6-7.1,2.4-11.1,2.4c-4.7,0-8.6-1.1-11.9-3.2c-3.3-2.1-5.7-4.8-7.1-8.1
				c-1.5-3.3-2.2-6.9-2.2-10.9c0-3.5,0.6-6.9,1.7-10.2c1.2-3.3,2.8-6.3,4.9-9c2.1-2.7,4.8-4.8,8.2-6.5c3.3-1.7,7-2.5,11-2.5
				C331.5,25.1,336.8,27.3,340.5,31.7z M309.7,35.7c-2.6,3.5-3.9,7.7-3.9,12.7c0,5.8,1.6,10.8,4.9,15.2c3.2,4.4,7.6,6.6,13.2,6.6
				c4.9,0,8.7-1.7,11.3-5.1c2.6-3.4,3.9-7.6,3.9-12.5c0-5.8-1.6-10.9-4.9-15.4c-3.3-4.5-7.7-6.7-13.2-6.7
				C316,30.4,312.3,32.2,309.7,35.7z M332.2,80.7c4,2.3,7.3,3.4,9.9,3.4c2,0,3.8-0.3,5.2-1c0.5-0.2,0.8-0.4,1-0.4
				c0.6,0,0.9,0.3,0.9,0.8c0,0.3-0.2,0.7-0.7,1.3c-2.8,3.6-6.3,5.4-10.4,5.4c-2,0-4-0.5-6-1.5c-2-1-3.6-2.1-4.9-3.3
				c-1.3-1.2-2.9-2.3-4.6-3.3c-1.8-1-3.5-1.5-5.2-1.5c-0.4,0-0.9,0-1.3,0.1c-0.4,0.1-0.7,0.1-0.7,0.1c-0.4,0-0.7-0.2-0.7-0.6
				c0-0.3,0.2-0.6,0.7-1c1.8-1.3,4.2-2,7.1-2C324.9,77.2,328.2,78.4,332.2,80.7z"/>
			<path class="st1" d="M363.7,33.3c0-3-1.6-4.8-4.9-5.2c-0.7-0.2-1-0.6-1-1.1c0-0.7,0.4-1.1,1.2-1.1h17.9c0.7,0,1,0.4,1,1.1
				c0,0.6-0.3,1-1,1.1c-1.8,0.2-3.1,0.7-3.8,1.5c-0.8,0.8-1.2,2-1.2,3.8c0,0.6,0,2.5-0.1,5.5c-0.1,3-0.1,5.3-0.1,6.8V52
				c0,5.4,1,9.5,2.9,12.4c2.4,3.5,5.8,5.3,10.3,5.3c2.3,0,4.4-0.5,6.3-1.6c1.9-1.1,3.4-2.6,4.5-4.6c0.9-1.7,1.6-4.1,1.9-7.1
				c0.1-1.4,0.2-3,0.3-4.8c0-1.8,0.1-3.8,0.1-6.1c0-2.3,0.1-3.9,0.1-4.9l0.3-7.4c0-2.8-1.7-4.5-5.1-5.1c-0.7-0.1-1.1-0.5-1.1-1.1
				c0-0.7,0.4-1.1,1.2-1.1h14.4c0.7,0,1.1,0.4,1.1,1.1c0,0.7-0.3,1.1-1,1.1c-1.8,0.2-3.1,0.8-3.8,1.5c-0.8,0.8-1.2,2-1.2,3.7
				l-0.4,7.5c0,0.6-0.1,2.8-0.2,6.7c-0.1,3.9-0.2,6.7-0.4,8.6c-0.3,3.3-1,6.1-2.1,8.5c-1.7,3.7-4.1,6.5-7.3,8.4
				c-3.1,1.9-6.8,2.9-11,2.9c-3.6,0-6.7-0.8-9.5-2.4c-2.8-1.6-4.8-3.9-6.2-6.8c-1.6-3.5-2.5-8.3-2.5-14.4l0.4-10.6L363.7,33.3z"/>
			<path class="st1" d="M433.6,65.5c0,2.2,0.3,3.9,0.9,5.1c0.6,1.2,1.9,1.9,4,2.2c0.6,0.1,1,0.5,1,1.1c0,0.7-0.4,1.1-1.1,1.1h-17.7
				c-0.7,0-1.1-0.3-1.1-1c0-0.6,0.3-1,1-1.2c1.1-0.2,2.1-0.5,2.8-1c0.7-0.4,1.2-1.1,1.5-1.9c0.3-0.8,0.5-1.5,0.6-2.2
				c0.1-0.7,0.2-1.6,0.2-2.9l1-29.4c0-2.2-0.3-3.9-1-5.1s-2-2-4-2.3c-0.6-0.1-1-0.5-1-1.1c0-0.7,0.3-1.1,1-1.1h17.9
				c0.7,0,1,0.4,1,1.1c0,0.6-0.3,1-1,1.1c-2.1,0.4-3.4,1.2-4.1,2.4c-0.6,1.2-1,3-1,5.2L433.6,65.5z"/>
			<path class="st1" d="M485.1,27c1.8,1.3,2.6,3.2,2.6,5.9c0,0.9-0.1,2.2-0.2,3.8c-0.1,1.6-0.2,2.4-0.2,2.5c0,0.6-0.4,1-1.1,1
				c-0.5,0-0.8-0.2-1-0.7c-0.8-3-2.2-5.4-4.3-7.3c-2.1-1.8-4.6-2.7-7.3-2.8c-2.7,0-5,0.8-6.8,2.3c-1.8,1.4-2.7,3.2-2.7,5.3
				c0,1.4,0.6,2.9,1.9,4.3c1.3,1.4,4.6,3.3,9.9,5.7c2,0.9,3.6,1.8,4.8,2.5c1.2,0.7,2.5,1.6,3.9,2.8c1.4,1.1,2.4,2.4,3,3.8
				c0.6,1.4,1,3,1,4.8c0,4.6-1.8,8.2-5.5,10.9c-3.7,2.7-8.3,4.1-13.9,4.1c-5,0-8.6-0.8-10.7-2.3c-2.1-1.5-3.2-4-3.2-7.5
				c0-0.7,0-1.6,0.1-2.6c0-1,0.1-1.8,0.1-2.3c0-0.6,0.4-0.9,1.1-0.9c0.5,0,0.9,0.2,1,0.5c1.4,3.4,3.4,6,6,7.9
				c2.6,1.9,5.5,2.9,8.7,2.9c3.2,0,5.8-1,7.6-3c1.2-1.4,1.9-2.9,1.9-4.6c0-1.5-0.6-3-1.8-4.5c-0.4-0.5-0.9-1-1.5-1.4
				c-0.5-0.4-1.2-0.9-2-1.3c-0.8-0.4-1.5-0.8-2-1c-0.5-0.2-1.3-0.6-2.3-1c-1-0.4-1.7-0.8-2.1-1c-2-0.9-3.5-1.7-4.7-2.4
				s-2.4-1.5-3.9-2.7c-1.5-1.1-2.5-2.4-3.2-3.9c-0.7-1.5-1-3.1-1-4.9c0-4.4,1.9-8,5.7-10.7c3.8-2.7,8.3-4.1,13.5-4.1
				C480.5,25.1,483.4,25.7,485.1,27z"/>
		</g>
		<g>
			<path class="st1" d="M126.8,50.6c1.1,1.7,2,3.3,2.7,4.7c0.7,1.5,1.2,2.6,1.5,3.2l0.4,1l0.3-9.1l1.1-30.2c0-5.2-2.3-8.1-6.9-8.7
				c-1-0.2-1.5-0.7-1.5-1.5c0-1,0.5-1.5,1.5-1.5h18.6c1,0,1.5,0.5,1.5,1.5c0,0.8-0.5,1.3-1.4,1.5c-2.5,0.4-4.1,1.3-4.9,2.6
				c-0.8,1.4-1.3,3.5-1.4,6.3l-1.7,51.3c0,1.2-1,1.8-3.1,1.8c-2,0-3.9-0.9-5.6-2.6c-1.7-1.7-3.9-4.6-6.4-8.6l-23-35.5
				c-0.6-1-1.3-2.1-1.9-3.3c-0.6-1.2-1.1-2.1-1.4-2.7c-0.3-0.6-0.5-0.9-0.5-0.9l-0.3,6.7l-1.2,33.9c0,2.6,0.5,4.7,1.6,6.2
				c1,1.5,2.9,2.4,5.5,2.8c0.9,0.2,1.4,0.7,1.4,1.5c0,0.9-0.5,1.4-1.5,1.4h-19c-1,0-1.5-0.5-1.5-1.4c0-0.8,0.5-1.4,1.4-1.5
				c2.8-0.5,4.5-1.4,5.3-2.9c0.7-1.5,1.2-3.8,1.3-6.9l1.4-39.2c0-2.6-0.5-4.7-1.5-6.2c-1-1.5-2.7-2.5-5.2-2.9
				C81.4,11.3,81,10.8,81,10c0-1,0.5-1.5,1.4-1.5h15.5c1.2,0,2,0.4,2.5,1.3L126.8,50.6z"/>
		</g>
		<g>
			<path class="st1" d="M51.7,117.7h-3.4l3.8-25.3H54l12.5,18.8l2.7-18.8h3.4l-3.7,25.3h-1.8L54.4,99L51.7,117.7z"/>
			<path class="st1" d="M86.7,117.7h-3.1l0.3-2.1c-0.7,0.8-1.3,1.4-2.1,1.8c-0.7,0.4-1.5,0.6-2.3,0.6c-1.6,0-3-0.6-4-1.9
				c-1.1-1.3-1.6-2.9-1.6-4.8c0-1.1,0.2-2.2,0.6-3.3c0.4-1.1,0.9-2.1,1.6-3c1.1-1.4,2.3-2.4,3.8-3.1c1.4-0.6,3.3-0.9,5.6-0.9h3.9
				L86.7,117.7z M84.4,112.5l1.3-8.8c-0.1,0-0.2,0-0.3,0c-0.1,0-0.3,0-0.5,0c-2.2,0-4,0.7-5.4,2c-1.4,1.4-2.1,3.1-2.1,5.2
				c0,1.3,0.3,2.4,0.9,3.2c0.6,0.8,1.4,1.2,2.3,1.2c0.7,0,1.4-0.2,2.1-0.7C83.2,114.2,83.8,113.5,84.4,112.5z"/>
			<path class="st1" d="M96,117.7h-1.6L90.6,101h3.2l2.2,10.4l5.2-10.4h3.3L96,117.7z"/>
			<path class="st1" d="M107.9,117.7h-3.2l2.4-16.7h3.2L107.9,117.7z M107.7,95.8c0-0.5,0.2-0.9,0.5-1.3c0.3-0.3,0.8-0.5,1.3-0.5
				c0.5,0,0.9,0.2,1.2,0.5c0.3,0.3,0.5,0.8,0.5,1.3c0,0.5-0.2,0.9-0.5,1.2c-0.3,0.3-0.7,0.5-1.2,0.5c-0.5,0-0.9-0.2-1.3-0.5
				C107.9,96.7,107.7,96.3,107.7,95.8z"/>
			<path class="st1" d="M115.5,118.3c-1-0.4-1.7-0.9-2.1-1.3c-0.4-0.4-0.6-0.9-0.6-1.5c0-0.7,0.3-1.2,0.8-1.8c0.5-0.5,1.3-1,2.3-1.4
				c-0.9-0.5-1.6-1.1-2-1.9c-0.4-0.8-0.7-1.8-0.7-2.9c0-2.1,0.7-3.7,2.1-4.8c1.4-1.1,3.3-1.7,5.8-1.7h6.5l-0.4,2.6h-2.8
				c0.4,0.5,0.7,1,0.9,1.5c0.2,0.5,0.3,1.1,0.3,1.7c0,1.3-0.3,2.5-1,3.5c-0.7,1-1.6,1.8-2.8,2.3c-0.8,0.3-1.8,0.6-3,0.8
				c-0.2,0-0.4,0.1-0.5,0.1c-0.8,0.1-1.4,0.3-1.7,0.5s-0.5,0.4-0.5,0.7c0,0.6,0.8,1.2,2.5,1.6c0.9,0.2,1.6,0.4,2.2,0.6
				c1.6,0.5,2.7,1.1,3.4,1.8c0.7,0.7,1,1.5,1,2.5c0,1.4-0.6,2.6-1.9,3.5c-1.3,0.9-3,1.3-5.1,1.3c-2.1,0-3.8-0.4-5.1-1.2
				c-1.3-0.8-2-1.8-2-3c0-0.9,0.4-1.6,1.2-2.3C112.9,119,114.1,118.6,115.5,118.3z M118.3,119.2c-1.7,0.5-2.9,0.9-3.5,1.2
				c-0.6,0.3-0.9,0.7-0.9,1.2c0,0.6,0.4,1.1,1.1,1.5c0.7,0.4,1.7,0.6,2.9,0.6s2.2-0.2,2.9-0.5c0.7-0.4,1-0.8,1-1.5
				c0-0.5-0.3-1-0.8-1.4C120.4,119.9,119.5,119.6,118.3,119.2z M116.1,107.5c0,0.9,0.3,1.7,0.9,2.3c0.6,0.6,1.3,0.9,2.1,0.9
				c0.9,0,1.7-0.4,2.3-1.1c0.6-0.7,0.9-1.6,0.9-2.7c0-1-0.3-1.8-0.8-2.4c-0.5-0.6-1.2-0.9-2.1-0.9c-1,0-1.8,0.4-2.4,1.1
				C116.4,105.4,116.1,106.3,116.1,107.5z"/>
			<path class="st1" d="M141.1,117.7H138l0.3-2.1c-0.7,0.8-1.3,1.4-2.1,1.8c-0.7,0.4-1.5,0.6-2.3,0.6c-1.6,0-3-0.6-4-1.9
				c-1.1-1.3-1.6-2.9-1.6-4.8c0-1.1,0.2-2.2,0.6-3.3c0.4-1.1,0.9-2.1,1.6-3c1.1-1.4,2.3-2.4,3.8-3.1c1.4-0.6,3.3-0.9,5.6-0.9h3.9
				L141.1,117.7z M138.7,112.5l1.3-8.8c-0.1,0-0.2,0-0.3,0c-0.1,0-0.3,0-0.5,0c-2.2,0-4,0.7-5.4,2c-1.4,1.4-2.1,3.1-2.1,5.2
				c0,1.3,0.3,2.4,0.9,3.2c0.6,0.8,1.4,1.2,2.3,1.2c0.7,0,1.4-0.2,2.1-0.7C137.6,114.2,138.2,113.5,138.7,112.5z"/>
			<path class="st1" d="M150.4,110.6c-0.1,0.5-0.2,1-0.2,1.4c0,0.4-0.1,0.7-0.1,1c0,0.7,0.2,1.2,0.5,1.6s0.9,0.5,1.6,0.5
				c0.4,0,0.8-0.1,1.3-0.2c0.5-0.2,1-0.4,1.5-0.7v2.9c-0.7,0.4-1.4,0.6-2,0.8c-0.6,0.2-1.2,0.3-1.8,0.3c-1.3,0-2.4-0.4-3.3-1.2
				c-0.8-0.8-1.3-1.9-1.3-3.3c0-0.4,0-0.8,0.1-1.2c0.1-0.4,0.2-1,0.3-1.8l1.5-7.2h-2.8l0.5-2.4h2.9l0.8-3.5h3.3l-0.8,3.5h3.3
				l-0.5,2.4H152L150.4,110.6z"/>
			<path class="st1" d="M160.8,117.7h-3.2l2.4-16.7h3.2L160.8,117.7z M160.6,95.8c0-0.5,0.2-0.9,0.5-1.3c0.3-0.3,0.8-0.5,1.3-0.5
				c0.5,0,0.9,0.2,1.2,0.5c0.3,0.3,0.5,0.8,0.5,1.3c0,0.5-0.2,0.9-0.5,1.2c-0.3,0.3-0.7,0.5-1.2,0.5c-0.5,0-0.9-0.2-1.3-0.5
				S160.6,96.3,160.6,95.8z"/>
			<path class="st1" d="M165.4,117.7L168,101h3.2l-0.4,2.7c1-1,2-1.8,3-2.3c1-0.5,1.9-0.8,2.9-0.8c1.3,0,2.2,0.4,2.9,1.2
				c0.7,0.8,1,1.9,1,3.4c0,0.4,0,0.8-0.1,1.2s-0.1,0.9-0.2,1.4l-1.5,10h-3.2l1.5-10.8c0-0.3,0.1-0.7,0.1-1c0-0.3,0-0.5,0-0.7
				c0-0.7-0.2-1.1-0.5-1.5c-0.3-0.3-0.8-0.5-1.4-0.5c-0.8,0-1.6,0.3-2.4,0.8c-0.8,0.6-1.7,1.4-2.6,2.5l-1.8,11H165.4z"/>
			<path class="st1" d="M186.1,118.3c-1-0.4-1.7-0.9-2.1-1.3c-0.4-0.4-0.6-0.9-0.6-1.5c0-0.7,0.3-1.2,0.8-1.8c0.5-0.5,1.3-1,2.3-1.4
				c-0.9-0.5-1.6-1.1-2-1.9c-0.4-0.8-0.7-1.8-0.7-2.9c0-2.1,0.7-3.7,2.1-4.8c1.4-1.1,3.3-1.7,5.8-1.7h6.5l-0.4,2.6h-2.8
				c0.4,0.5,0.7,1,0.9,1.5c0.2,0.5,0.3,1.1,0.3,1.7c0,1.3-0.3,2.5-1,3.5c-0.7,1-1.6,1.8-2.8,2.3c-0.8,0.3-1.8,0.6-3,0.8
				c-0.2,0-0.4,0.1-0.5,0.1c-0.8,0.1-1.4,0.3-1.7,0.5s-0.5,0.4-0.5,0.7c0,0.6,0.8,1.2,2.5,1.6c0.9,0.2,1.6,0.4,2.2,0.6
				c1.6,0.5,2.7,1.1,3.4,1.8c0.7,0.7,1,1.5,1,2.5c0,1.4-0.6,2.6-1.9,3.5c-1.3,0.9-3,1.3-5.1,1.3c-2.1,0-3.8-0.4-5.1-1.2
				c-1.3-0.8-2-1.8-2-3c0-0.9,0.4-1.6,1.2-2.3S184.6,118.6,186.1,118.3z M188.9,119.2c-1.7,0.5-2.9,0.9-3.5,1.2
				c-0.6,0.3-0.9,0.7-0.9,1.2c0,0.6,0.4,1.1,1.1,1.5c0.7,0.4,1.7,0.6,2.9,0.6s2.2-0.2,2.9-0.5c0.7-0.4,1-0.8,1-1.5
				c0-0.5-0.3-1-0.8-1.4C191,119.9,190.1,119.6,188.9,119.2z M186.7,107.5c0,0.9,0.3,1.7,0.9,2.3c0.6,0.6,1.3,0.9,2.1,0.9
				c0.9,0,1.7-0.4,2.3-1.1c0.6-0.7,0.9-1.6,0.9-2.7c0-1-0.3-1.8-0.8-2.4c-0.5-0.6-1.2-0.9-2.1-0.9c-1,0-1.8,0.4-2.4,1.1
				C187,105.4,186.7,106.3,186.7,107.5z"/>
			<path class="st1" d="M208.2,117.7l3.8-25.3h4.3c2.6,0,4.7,0.6,6.1,1.8c1.4,1.2,2.1,2.8,2.1,5c0,2.5-0.8,4.5-2.3,5.8
				c-1.5,1.3-3.7,2-6.6,2h-2.3l-1.6,10.7H208.2z M213.8,103.9h2.7c1.4,0,2.5-0.4,3.4-1.3c0.9-0.8,1.3-1.9,1.3-3.2
				c0-1.3-0.5-2.4-1.4-3c-0.9-0.7-2.3-1-4.1-1H215L213.8,103.9z"/>
			<path class="st1" d="M236.1,117.7H233l0.3-2.1c-0.7,0.8-1.3,1.4-2.1,1.8c-0.7,0.4-1.5,0.6-2.3,0.6c-1.6,0-3-0.6-4-1.9
				c-1.1-1.3-1.6-2.9-1.6-4.8c0-1.1,0.2-2.2,0.6-3.3c0.4-1.1,0.9-2.1,1.6-3c1.1-1.4,2.3-2.4,3.8-3.1c1.4-0.6,3.3-0.9,5.6-0.9h3.9
				L236.1,117.7z M233.7,112.5l1.3-8.8c-0.1,0-0.2,0-0.3,0c-0.1,0-0.3,0-0.5,0c-2.2,0-4,0.7-5.4,2c-1.4,1.4-2.1,3.1-2.1,5.2
				c0,1.3,0.3,2.4,0.9,3.2c0.6,0.8,1.4,1.2,2.3,1.2c0.7,0,1.4-0.2,2.1-0.7S233.2,113.5,233.7,112.5z"/>
			<path class="st1" d="M242.3,126.1H239l4.5-9.4l-3-15.7h3.1l2.1,11l5.3-11h3.4L242.3,126.1z"/>
			<path class="st1" d="M254.5,117.7l2.5-16.7h3.2l-0.4,2.3c0.9-0.9,1.9-1.6,2.8-2.1c0.9-0.5,1.8-0.7,2.8-0.7c1.1,0,1.9,0.3,2.6,0.8
				c0.7,0.6,1.1,1.3,1.3,2.4c1.2-1.1,2.3-2,3.3-2.5c1-0.5,2-0.8,3-0.8c1.3,0,2.2,0.4,2.9,1.1c0.7,0.8,1,1.9,1,3.3
				c0,0.3,0,0.7-0.1,1.1c0,0.5-0.1,1-0.2,1.5l-1.5,10h-3.2l1.6-10.8c0-0.3,0.1-0.6,0.1-0.9c0-0.3,0-0.5,0-0.8c0-0.6-0.2-1.1-0.5-1.5
				c-0.3-0.3-0.8-0.5-1.4-0.5c-0.8,0-1.6,0.3-2.4,0.8c-0.8,0.6-1.7,1.4-2.6,2.5l-1.6,11.1h-3.2l1.6-10.8c0-0.3,0.1-0.6,0.1-0.9
				c0-0.3,0-0.5,0-0.8c0-0.6-0.2-1.1-0.5-1.5s-0.8-0.5-1.4-0.5c-0.8,0-1.6,0.3-2.4,0.8c-0.8,0.6-1.7,1.4-2.6,2.5l-1.6,11.1H254.5z"
				/>
			<path class="st1" d="M295.4,112.8l-0.5,3.4c-1,0.6-1.9,1.1-2.8,1.4c-0.9,0.3-1.9,0.5-2.8,0.5c-2.1,0-3.8-0.7-5.2-2.2
				s-2-3.4-2-5.7c0-2.8,0.8-5.1,2.3-6.9c1.5-1.8,3.4-2.7,5.8-2.7c1.9,0,3.4,0.6,4.4,1.7c1,1.1,1.5,2.7,1.5,4.9v1.9h-10.6l-0.1,1.1
				v0.4c0,1.4,0.4,2.5,1.2,3.4c0.8,0.9,1.7,1.4,2.9,1.4c0.9,0,1.8-0.2,2.8-0.6C293.2,114.3,294.3,113.7,295.4,112.8z M286.1,106.7h7
				v-0.5c0-0.9-0.3-1.7-0.8-2.2c-0.5-0.6-1.2-0.8-2.1-0.8c-1,0-1.9,0.3-2.6,0.9C287,104.6,286.5,105.5,286.1,106.7z"/>
			<path class="st1" d="M298.4,117.7l2.5-16.7h3.2l-0.4,2.7c1-1,2-1.8,3-2.3c1-0.5,1.9-0.8,2.9-0.8c1.3,0,2.2,0.4,2.9,1.2
				c0.7,0.8,1,1.9,1,3.4c0,0.4,0,0.8-0.1,1.2c0,0.4-0.1,0.9-0.2,1.4l-1.5,10h-3.2l1.5-10.8c0-0.3,0.1-0.7,0.1-1c0-0.3,0-0.5,0-0.7
				c0-0.7-0.2-1.1-0.5-1.5c-0.3-0.3-0.8-0.5-1.4-0.5c-0.8,0-1.6,0.3-2.4,0.8c-0.8,0.6-1.7,1.4-2.6,2.5l-1.8,11H298.4z"/>
			<path class="st1" d="M321.4,110.6c-0.1,0.5-0.2,1-0.2,1.4c0,0.4-0.1,0.7-0.1,1c0,0.7,0.2,1.2,0.5,1.6c0.3,0.3,0.9,0.5,1.6,0.5
				c0.4,0,0.8-0.1,1.3-0.2c0.5-0.2,1-0.4,1.5-0.7v2.9c-0.7,0.4-1.4,0.6-2,0.8s-1.2,0.3-1.8,0.3c-1.3,0-2.4-0.4-3.3-1.2
				c-0.8-0.8-1.3-1.9-1.3-3.3c0-0.4,0-0.8,0.1-1.2c0.1-0.4,0.2-1,0.3-1.8l1.5-7.2h-2.8l0.5-2.4h2.9l0.8-3.5h3.3l-0.8,3.5h3.3
				l-0.5,2.4h-3.3L321.4,110.6z"/>
			<path class="st1" d="M341.9,117.7h-3.5l3.7-25.3h3.5L341.9,117.7z"/>
			<path class="st1" d="M346.9,117.7l2.5-16.7h3.2l-0.4,2.7c1-1,2-1.8,3-2.3c1-0.5,1.9-0.8,2.9-0.8c1.3,0,2.2,0.4,2.9,1.2
				c0.7,0.8,1,1.9,1,3.4c0,0.4,0,0.8-0.1,1.2c0,0.4-0.1,0.9-0.2,1.4l-1.5,10h-3.2l1.5-10.8c0-0.3,0.1-0.7,0.1-1c0-0.3,0-0.5,0-0.7
				c0-0.7-0.2-1.1-0.5-1.5c-0.3-0.3-0.8-0.5-1.4-0.5c-0.8,0-1.6,0.3-2.4,0.8c-0.8,0.6-1.7,1.4-2.6,2.5l-1.8,11H346.9z"/>
			<path class="st1" d="M369.9,110.6c-0.1,0.5-0.2,1-0.2,1.4c0,0.4-0.1,0.7-0.1,1c0,0.7,0.2,1.2,0.5,1.6c0.3,0.3,0.9,0.5,1.6,0.5
				c0.4,0,0.8-0.1,1.3-0.2c0.5-0.2,1-0.4,1.5-0.7v2.9c-0.7,0.4-1.4,0.6-2,0.8s-1.2,0.3-1.8,0.3c-1.3,0-2.4-0.4-3.3-1.2
				c-0.8-0.8-1.3-1.9-1.3-3.3c0-0.4,0-0.8,0.1-1.2c0.1-0.4,0.2-1,0.3-1.8l1.5-7.2h-2.8l0.5-2.4h2.9l0.8-3.5h3.3L372,101h3.3
				l-0.5,2.4h-3.3L369.9,110.6z"/>
			<path class="st1" d="M390.4,112.8l-0.5,3.4c-1,0.6-1.9,1.1-2.8,1.4c-0.9,0.3-1.9,0.5-2.8,0.5c-2.1,0-3.8-0.7-5.2-2.2
				s-2-3.4-2-5.7c0-2.8,0.8-5.1,2.3-6.9c1.5-1.8,3.4-2.7,5.8-2.7c1.9,0,3.4,0.6,4.4,1.7c1,1.1,1.5,2.7,1.5,4.9v1.9h-10.6l-0.1,1.1
				v0.4c0,1.4,0.4,2.5,1.2,3.4c0.8,0.9,1.7,1.4,2.9,1.4c0.9,0,1.8-0.2,2.8-0.6C388.2,114.3,389.2,113.7,390.4,112.8z M381,106.7h7
				v-0.5c0-0.9-0.3-1.7-0.8-2.2c-0.5-0.6-1.2-0.8-2.1-0.8c-1,0-1.9,0.3-2.6,0.9C381.9,104.6,381.4,105.5,381,106.7z"/>
			<path class="st1" d="M396.4,118.3c-1-0.4-1.7-0.9-2.1-1.3c-0.4-0.4-0.6-0.9-0.6-1.5c0-0.7,0.3-1.2,0.8-1.8c0.5-0.5,1.3-1,2.3-1.4
				c-0.9-0.5-1.6-1.1-2-1.9s-0.7-1.8-0.7-2.9c0-2.1,0.7-3.7,2.1-4.8c1.4-1.1,3.3-1.7,5.8-1.7h6.5l-0.4,2.6h-2.8
				c0.4,0.5,0.7,1,0.9,1.5c0.2,0.5,0.3,1.1,0.3,1.7c0,1.3-0.3,2.5-1,3.5c-0.7,1-1.6,1.8-2.8,2.3c-0.8,0.3-1.8,0.6-3,0.8
				c-0.2,0-0.4,0.1-0.5,0.1c-0.8,0.1-1.4,0.3-1.7,0.5c-0.3,0.2-0.5,0.4-0.5,0.7c0,0.6,0.8,1.2,2.5,1.6c0.9,0.2,1.6,0.4,2.2,0.6
				c1.6,0.5,2.7,1.1,3.4,1.8c0.7,0.7,1,1.5,1,2.5c0,1.4-0.6,2.6-1.9,3.5c-1.3,0.9-3,1.3-5.1,1.3c-2.1,0-3.8-0.4-5.1-1.2
				c-1.3-0.8-2-1.8-2-3c0-0.9,0.4-1.6,1.2-2.3C393.8,119,394.9,118.6,396.4,118.3z M399.1,119.2c-1.7,0.5-2.9,0.9-3.5,1.2
				c-0.6,0.3-0.9,0.7-0.9,1.2c0,0.6,0.4,1.1,1.1,1.5c0.7,0.4,1.7,0.6,2.9,0.6c1.2,0,2.2-0.2,2.9-0.5c0.7-0.4,1-0.8,1-1.5
				c0-0.5-0.3-1-0.8-1.4C401.3,119.9,400.4,119.6,399.1,119.2z M397,107.5c0,0.9,0.3,1.7,0.9,2.3c0.6,0.6,1.3,0.9,2.1,0.9
				c0.9,0,1.7-0.4,2.3-1.1c0.6-0.7,0.9-1.6,0.9-2.7c0-1-0.3-1.8-0.8-2.4c-0.5-0.6-1.2-0.9-2.1-0.9c-1,0-1.8,0.4-2.4,1.1
				C397.3,105.4,397,106.3,397,107.5z"/>
			<path class="st1" d="M411.9,117.7h-3.1l2.5-16.7h3.1l-0.5,3.1c0.8-1.3,1.6-2.2,2.2-2.7c0.7-0.5,1.4-0.7,2.2-0.7
				c0.2,0,0.4,0,0.7,0.1c0.2,0,0.5,0.1,0.7,0.2l-0.8,3c-0.2,0-0.3-0.1-0.5-0.1c-0.2,0-0.3,0-0.4,0c-0.9,0-1.8,0.3-2.5,1
				c-0.7,0.7-1.5,1.8-2.1,3.3L411.9,117.7z"/>
			<path class="st1" d="M423.9,117.7h-3.2l2.4-16.7h3.2L423.9,117.7z M423.6,95.8c0-0.5,0.2-0.9,0.5-1.3c0.3-0.3,0.8-0.5,1.3-0.5
				c0.5,0,0.9,0.2,1.2,0.5c0.3,0.3,0.5,0.8,0.5,1.3c0,0.5-0.2,0.9-0.5,1.2c-0.3,0.3-0.7,0.5-1.2,0.5c-0.5,0-0.9-0.2-1.3-0.5
				C423.8,96.7,423.6,96.3,423.6,95.8z"/>
			<path class="st1" d="M433.8,110.6c-0.1,0.5-0.2,1-0.2,1.4c0,0.4-0.1,0.7-0.1,1c0,0.7,0.2,1.2,0.5,1.6c0.3,0.3,0.9,0.5,1.6,0.5
				c0.4,0,0.8-0.1,1.3-0.2c0.5-0.2,1-0.4,1.5-0.7v2.9c-0.7,0.4-1.4,0.6-2,0.8s-1.2,0.3-1.8,0.3c-1.3,0-2.4-0.4-3.3-1.2
				c-0.8-0.8-1.3-1.9-1.3-3.3c0-0.4,0-0.8,0.1-1.2c0.1-0.4,0.2-1,0.3-1.8l1.5-7.2h-2.8l0.5-2.4h2.9l0.8-3.5h3.3l-0.8,3.5h3.3
				l-0.5,2.4h-3.3L433.8,110.6z"/>
			<path class="st1" d="M443,126.1h-3.3l4.5-9.4l-3-15.7h3.1l2.1,11l5.3-11h3.4L443,126.1z"/>
		</g>
		<path class="st1" d="M38.2,5.6L3.1,75l35.1-13.3l35.1,12.8L38.2,5.6z M37.7,58.3l-30.3,13L38,11.7L37.7,58.3z"/>
	</g>
	<g>
		<path d="M494.7,27.5h-2v-1.1h5.3v1.1h-2v5.9h-1.3V27.5z"/>
		<path d="M504.6,30.5c0-0.9-0.1-2-0.1-2.9h0c-0.2,0.8-0.5,1.8-0.8,2.7l-1,3h-1l-0.9-3c-0.3-0.9-0.5-1.8-0.7-2.7h0
			c0,0.9-0.1,2-0.1,3l-0.2,2.8h-1.2l0.5-7h1.7l0.9,2.8c0.2,0.8,0.5,1.6,0.6,2.4h0c0.2-0.8,0.4-1.6,0.7-2.4l1-2.8h1.7l0.4,7h-1.2
			L504.6,30.5z"/>
	</g>
</g>
</svg>
